# xmcd
#
# Track frame offsets:
#	150
#	22382
#	40857
#	61480
#	79685
#
# Disc length: 1528 seconds
#
# Revision: 2
# Processed by: cddbd v1.4PL0 Copyright (c) Steve Scherf et al.
# Submitted via: EasyCDDAExtractor 5.0.7
#
DISCID=3d05f605
DTITLE=Des'ree - I'm Kissing You
DYEAR=1997
DGENRE=Blues
TTITLE0=I'm Kissing You
TTITLE1=You Gotta Be
TTITLE2=Warm Hands, Cold Heart
TTITLE3=Sword Of Love
TTITLE4=Livin' In The City [Meme's Club Mix]
EXTD=
EXTT0=
EXTT1=
EXTT2=
EXTT3=
EXTT4=
PLAYORDER=
